# xmcd
#
# Track frame offsets:
#	150
#	14570
#	31252
#	46880
#	63907
#	83672
#	100661
#	121687
#	133136
#	150072
#
# Disc length: 2183 seconds
# Revision: 0
# Processed by: cddbd v1.5.2PL0 Copyright (c) Steve Scherf et al.
# Submitted via: dBpowerAMP V12.0
#
DISCID=6a08850a
DTITLE=Gary "U.S." Bonds - Christmas Is ON!
DYEAR=2012
DGENRE=Xmas
TTITLE0=Christmas is On!
TTITLE1=Santa Claus is Coming To Town
TTITLE2=It's Christmas In Nu Awlins
TTITLE3=We Wish You a Merry Christmas
TTITLE4=Christmas is a Phone Call Away
TTITLE5=White Christmas
TTITLE6=Santa Bring My Baby Home To Me
TTITLE7=Why Don't You Spend Christmas With Me
TTITLE8='Tis the Season To Be Lovin' You
TTITLE9=Baby, Baby It's Christmas
EXTD=
EXTT0=
EXTT1=
EXTT2=
EXTT3=
EXTT4=
EXTT5=
EXTT6=
EXTT7=
EXTT8=
EXTT9=
PLAYORDER=
